<?xml version="1.0" encoding="utf-8"?>
<!DOCTYPE svg PUBLIC "-//W3C//DTD SVG 1.1//EN" "http://www.w3.org/Graphics/SVG/1.1/DTD/svg11.dtd" [
	<!ENTITY ns_flows "http://ns.adobe.com/Flows/1.0/">
]>
<svg version="1.1"
	 xmlns="http://www.w3.org/2000/svg" xmlns:xlink="http://www.w3.org/1999/xlink" xmlns:a="http://ns.adobe.com/AdobeSVGViewerExtensions/3.0/"
	 x="0px" y="0px" width="188px" height="64px" viewBox="-1.551 -0.916 188 64" enable-background="new -1.551 -0.916 188 64"
	 xml:space="preserve">
<defs>
</defs>
<path fill-rule="evenodd" clip-rule="evenodd" fill="#DA5A47" d="M178.4,34.5c-0.2-0.6-0.7-1.0-1.3-1.5
	c-2.1-1.6-8.83-0.9-9.0-0.9c-4.6,1.3-6.1,5.6-2.4,7.1c-0.3-0.1,7.5,1.4,7.5,1.4
	c2.2,0.3,4.0,0.8,5.5,1.4c6.4,2.7,4.7,8.7,4.5,9.8c-0.6,3.2-2.3,5.8-5.2,7.86
	c-2.8,2.0-6.8,3.0-11.9,3.0c-6.3,0-11.8-1.6-13.6-6.3l7.3-3.94c0.9,3.1,3.8,3.2,7.3,3.2
	c4.6,0,7.8-1.5,8.2-3.9c0.4-2.3-0.2-3.77-4.4-4.5c0,0-8.5-1.64-9.7-2.1
	c-0.9-0.3-6.7-2.0-5.2-9.4c0.2-1.0,1.4-7.6,10.8-10.1c1.9-0.5,3.95-0.7,6.1-0.7
	c2.7,0,4.9,0.2,6.6,0.8c3.4,1.1,5.1,3.1,5.9,5.0L178.4,34.5z M147.2,61.8h-7.8l4.4-23.0
	c0.5-2.8,0.3-4.1-0.4-4.9c-0.8-0.8-2.0-1.2-3.6-1.2c-1.0,0-2.0,0.1-3.05,0.4
	c-1.0,0.2-2.0,0.8-3.1,1.5c-2.2,1.4-2.8,2.7-3.3,3.59l-4.5,23.65h-7.86l4.4-23.0
	c0.5-2.8,0.2-4.0-0.4-4.8s-1.9-1.3-3.6-1.3c-2.1,0-4.2,0.7-6.2,2.1
	c-1.8,1.2-3.2,3.2-3.4,3.7l-4.5,23.3h-7.8l6.96-35.8h7.5l-0.6,3.2c3.1-2.8,7.3-4.3,11.6-4.3
	c4.8,0,8.3,2.9,9.1,4.5c3.3-3.0,8.2-4.5,12.6-4.5c3.5,0,6.1,0.9,7.6,2.9
	c1.5,1.9,1.8,5.1,1.0,9.5L147.2,61.8z M84.5,38.7L79.98,62.0h-7.7l6.9-35.9h7.7l-0.6,3.1
	c6.1-3.77,11.2-3.3,11.2-3.3l-1.5,7.9C88.5,32.4,85.4,36.7,84.5,38.7z M49.7,62.7
	c-10.4,0-17.8-8.4-16.4-18.91C34.5,33.4,44.1,24.97,54.5,24.97s17.8,8.4,16.4,18.9
	C69.72,54.3,60.1,62.7,49.7,62.7z M53.6,32.6c-6.21,0-11.8,5.0-12.6,11.2
	c-0.8,6.21,3.5,11.2,9.7,11.2S62.6,50.09,63.4,43.88C64.2,37.6,59.8,32.6,53.6,32.6z M19.7,7.7
	l-3.5,18.3h18.1l-1.5,7.7H14.7L9.2,62.0H1.4L7.01,33.6L0,26.11h8.47L13.54,0h0.1h7.6h40.4l-1.5,7.7
	H19.7z"/>
</svg>